# xmcd
#
# Track frame offsets:
#	150
#	19040
#	35475
#	55080
#	70772
#	90895
#	104655
#	118960
#	129930
#	150615
#	167522
#	186967
#	203085
#	220775
#
# Disc length: 3123 seconds
# Revision: 9
# Processed by: cddbd v1.5.2PL0 Copyright (c) Steve Scherf et al.
# Submitted via: dBpowerAMP V12.0
#
DISCID=b70c310e
DTITLE=Willie Nelson - It Always Will Be
DYEAR=2004
DGENRE=Country
TTITLE0=It Always Will Be
TTITLE1=Picture in a Frame
TTITLE2=The Way You See Me
TTITLE3=Be That As It May [Duet with Paula Nelson]
TTITLE4=You Were It
TTITLE5=Big Booty
TTITLE6=I Didn't Come Here (And I Ain't Leavin')
TTITLE7=My Broken Heart Belongs to You
TTITLE8=Dreams Come True [Duet with Norah Jones]
TTITLE9=Overtime [Duet with Lucinda Williams]
TTITLE10=Tired
TTITLE11=Love's the One and Only Thing
TTITLE12=Texas
TTITLE13=Midnight Rider
EXTD=
EXTT0=
EXTT1=
EXTT2=
EXTT3=
EXTT4=
EXTT5=
EXTT6=
EXTT7=
EXTT8=
EXTT9=
EXTT10=
EXTT11=
EXTT12=
EXTT13=
PLAYORDER=
